# xmcd CD database file
#
# Track frame offsets:
#	150
#	15814
#	34871
#	61528
#	78907
#	97675
#	127811
#	145937
#	152890
#	170431
#	188544
#	207085
#	228022
#	247765
#
# Disc length: 3824 seconds
#
# Revision: 1
# Processed by: cddbd v1.5.1PL2 Copyright (c) Steve Scherf et al.
# Submitted via: CDex 1.51
#
DISCID=8f0eee0e
DTITLE=Jack Costanzo - Scorching the Skins
DYEAR=1900
DGENRE=Jazz
TTITLE0=Sing Sing Sing
TTITLE1=Bemba Colora
TTITLE2=Bop Mambo
TTITLE3=Birks Works
TTITLE4=Mambo Costanzo
TTITLE5=El Cuarto de Pedrona
TTITLE6=Green Onions
TTITLE7=Bongo Jam
TTITLE8=La Connection
TTITLE9=W. I. G.
TTITLE10=Creole Spice
TTITLE11=Calypso Blues
TTITLE12=Somos Cubano
TTITLE13=After Hours
EXTD=
EXTT0=
EXTT1=
EXTT2=
EXTT3=
EXTT4=
EXTT5=
EXTT6=
EXTT7=
EXTT8=
EXTT9=
EXTT10=
EXTT11=
EXTT12=
EXTT13=
PLAYORDER=
